# AST/ASF file generated using VICON BodyLanguage
# -----------------------------------------------
:version 1.10
:name VICON
:units
  mass 1.0
  length 0.45
  angle deg
:documentation
   .ast/.asf automatically generated from VICON data using
   VICON BodyBuilder and BodyLanguage model FoxedUp or BRILLIANT.MOD
:root
   order TX TY TZ RX RY RZ
   axis XYZ
   position 0 0 0  
   orientation 0 0 0 
:bonedata
  begin
     id 1 
     name lhipjoint
     direction 0.630082 -0.636569 0.44472 
     length 2.82754 
     axis 0 0 0  XYZ
  end
  begin
     id 2 
     name lfemur
     direction 0.34202 -0.939693 0  
     length 7.26371  
     axis 0 0 20  XYZ
    dof rx ry rz
    limits (-160.0 20.0)
           (-70.0 70.0)
           (-60.0 70.0)
  end
  begin
     id 3 
     name ltibia
     direction 0.34202 -0.939693 0   
     length 7.88616   
     axis 0 0 20   XYZ
    dof rx
    limits (-10.0 170.0)
  end
  begin
     id 4 
     name lfoot
     direction 0.0603448 -0.165796 0.984312   
     length 1.77861   
     axis -90 7.62852e-016 20   XYZ
    dof rx rz
    limits (-45.0 90.0)
           (-70.0 20.0)
  end
  begin
     id 5 
     name ltoes
     direction 1.53577e-011 -4.21876e-011 1   
     length 0.902235   
     axis -90 7.62852e-016 20   XYZ
    dof rx
    limits (-90.0 20.0)
  end
  begin
     id 6 
     name rhipjoint
     direction -0.656778 -0.61817 0.431866   
     length 2.9117  
     axis 0 0 0  XYZ 
  end
  begin
     id 7 
     name rfemur
     direction -0.34202 -0.939693 0   
     length 6.81603   
     axis 0 0 -20   XYZ
    dof rx ry rz
    limits (-160.0 20.0)
           (-70.0 70.0)
           (-70.0 60.0)
  end
  begin
     id 8 
     name rtibia
     direction -0.34202 -0.939693 0   
     length 8.05997   
     axis 0 0 -20   XYZ
    dof rx
    limits (-10.0 170.0)
 end
 begin
     id 9 
     name rfoot
     direction -0.0862404 -0.236944 0.967688   
     length 1.84899  
     axis -90 -7.62852e-016 -20   XYZ
    dof rx rz
    limits (-45.0 90.0)
           (-20.0 70.0)
  end
  begin
     id 10 
     name rtoes
     direction -1.53561e-011 -4.21798e-011 1   
     length 0.931579   
     axis -90 -7.62852e-016 -20   XYZ
    dof rx
    limits (-90.0 20.0)
  end
  begin
     id 11 
     name lowerback
     direction -0.0110203 0.991769 -0.127564   
     length 2.05686   
     axis 0 0 0   XYZ
    dof rx ry rz
    limits (-20.0 45.0)
           (-30.0 30.0)
           (-30.0 30.0)
  end
  begin
     id 12 
     name upperback
     direction 0.0109719 0.99993 -0.00432479   
     length 2.06234   
     axis 0 0 0   XYZ
    dof rx ry rz
    limits (-20.0 45.0)
           (-30.0 30.0)
           (-30.0 30.0)
  end
  begin
     id 13 
     name thorax
     direction 0.0173308 0.998351 0.0547306   
     length 2.09856   
     axis 0 0 0   XYZ
    dof rx ry rz
    limits (-20.0 45.0)
           (-30.0 30.0)
           (-30.0 30.0)
  end
  begin
     id 14 
     name lowerneck
     direction -0.0311736 0.989033 0.144366   
     length 1.98151   
     axis 0 0 0   XYZ
    dof rx ry rz
    limits (-20.0 45.0)
           (-30.0 30.0)
           (-30.0 30.0)
  end
  begin
     id 15 
     name upperneck
     direction 0.0421057 0.975772 -0.214698   
     length 2.01457   
     axis 0 0 0   XYZ
    dof rx ry rz
    limits (-20.0 45.0)
           (-30.0 30.0)
           (-30.0 30.0)
  end
  begin
     id 16
     name head
     direction 0.0136911 0.995958 -0.0887718  
     length 2.03562  
     axis 0 0 0   XYZ
    dof rx ry rz
    limits (-20.0 45.0)
           (-30.0 30.0)
           (-30.0 30.0)
  end
  begin
     id 17 
     name lclavicle
     direction 0.915335 0.396201 0.0720134  
     length 4.16217  
     axis 0 0 0   XYZ
    dof ry rz
    limits (-20.0 10.0)
           (0.0 20.0)
  end
  begin
     id 18 
     name lhumerus
     direction 1 -4.48965e-011 6.383e-018   
     length 4.93042   
     axis -180 -30 -90   XYZ
    dof rx ry rz
    limits (-60.0 90.0)
           (-90.0 90.0)
           (-90.0 90.0)
  end
  begin
     id 19
     name lradius
     direction 1 -4.48972e-011 8.8689e-027   
     length 3.68177   
     axis -180 -30 -90   XYZ
    dof rx
    limits (-10.0 170.0)
  end
  begin
     id 20
     name lwrist
     direction 1 -4.48953e-011 1.17971e-026   
     length 1.84089   
     axis -7.69454e-015 90 90   XYZ
    dof ry
    limits (-180.0 0.0)
 end
  begin
     id 21 
     name lhand
     direction 1 -4.49027e-011 2.35802e-026   
     length 0.721479   
     axis -1.50533e-014 90 90   XYZ
    dof rx rz
    limits (-90.0 90.0)
           (-45.0 45.0)
  end
  begin
     id 22 
     name lfingers
     direction 1 -4.48915e-011 4.72027e-026   
     length 0.581675   
     axis -3.01059e-014 90 90   XYZ
    dof rx
    limits (0.0 90.0)
  end
  begin
     id 23
     name lthumb
     direction 0.707107 -6.34948e-011 0.707107   
     length 0.835172   
     axis -90 45 -5.12164e-014   XYZ
    dof rx rz
    limits (-45.0 45.0)
           (-45.0 45.0)
  end
  begin
     id 24 
     name rclavicle
     direction -0.882781 0.469197 0.0234974   
     length 3.95647  
     axis 0 0 0   XYZ 
    dof ry rz
    limits (-10.0 20.0)
           (-20.0 0.0)
  end
  begin
     id 25 
     name rhumerus
     direction -1 -4.48965e-011 -1.54906e-018  
     length 5.07905   
     axis -180 30 90   XYZ
    dof rx ry rz
    limits (-90.0 60.0)
           (-90.0 90.0)
           (-90.0 90.0)
  end
  begin
     id 26 
     name rradius
     direction -1 -4.48972e-011 5.47489e-027   
     length 3.54394   
     axis -180 30 90   XYZ
    dof rx
    limits (-10.0 170.0)
  end
  begin
     id 27 
     name rwrist
     direction -1 -4.48955e-011 1.17969e-026   
     length 1.77197   
     axis -7.69454e-015 -90 -90   XYZ
    dof ry
    limits (-180.0 0.0)
  end
  begin
     id 28
     name rhand
     direction -1 -4.48982e-011 2.35888e-026   
     length 0.681156   
     axis -1.50533e-014 -90 -90   XYZ
    dof rx rz
    limits (-90.0 90.0)
           (-45.0 45.0)
  end
  begin
     id 29
     name rfingers
     direction -1 -4.48955e-011 4.71877e-026   
     length 0.549165   
     axis -3.01059e-014 -90 -90   XYZ
    dof rx
    limits (0.0 90.0)
  end
  begin
     id 30
     name rthumb
     direction -0.707107 -6.3491e-011 0.707107   
     length 0.788495   
     axis -90 -45 5.12164e-014   XYZ
    dof rx rz
    limits (-45.0 45.0)
           (-45.0 45.0)
  end
:hierarchy
  begin
    root lhipjoint rhipjoint lowerback
    lhipjoint lfemur
    lfemur ltibia
    ltibia lfoot
    lfoot ltoes
    rhipjoint rfemur
    rfemur rtibia
    rtibia rfoot
    rfoot rtoes
    lowerback upperback
    upperback thorax
    thorax lowerneck lclavicle rclavicle
    lowerneck upperneck
    upperneck head
    lclavicle lhumerus
    lhumerus lradius
    lradius lwrist
    lwrist lhand lthumb
    lhand lfingers
    rclavicle rhumerus
    rhumerus rradius
    rradius rwrist
    rwrist rhand rthumb
    rhand rfingers
  end

#!OML:ASF H:\Bending\Project 1\Capture day 1\Session 1\Subject.ASF
:FULLY-SPECIFIED
:DEGREES
96
root -12.2327 17.5504 -16.1278 -176.542 81.5739 -215.567
lowerback 54.7679 -5.33897 3.2805
upperback 10.4815 -2.20509 -0.614509
thorax -9.42823 -0.118319 -1.30936
lowerneck -12.1803 -3.4205 -8.73643
upperneck 4.8651 -3.76895 7.00697
head 3.72369 -1.69354 3.30678
rclavicle 8.94531e-014 3.58061e-014
rhumerus 47.8469 5.18473 -82.4847
rradius 31.8516
rwrist -3.58004
rhand -27.6972 -21.0247
rfingers 7.12502
rthumb -1.09347 -51.0016
lclavicle 8.94531e-014 3.58061e-014
lhumerus 56.4932 -13.8036 72.4741
lradius 34.1468
lwrist 41.7182
lhand -27.5286 18.7951
lfingers 7.12502
lthumb -0.930587 48.7728
rfemur -69.0902 -18.3007 22.6765
rtibia 46.8746
rfoot -15.4512 -6.82675
rtoes -4.3305
lfemur -66.6758 -5.64359 -10.1268
ltibia 41.5832
lfoot -13.2727 -0.0391628
ltoes 16.2785
97
root -12.2243 17.5714 -16.1139 -175.942 81.426 -214.927
lowerback 54.5231 -5.34135 3.3032
upperback 10.4638 -2.21926 -0.600953
thorax -9.42758 -0.129598 -1.3008
lowerneck -12.1775 -3.43065 -8.73098
upperneck 4.50265 -3.77926 7.13084
head 3.6165 -1.69078 3.34436
rclavicle 3.29983e-014 2.41026e-015
rhumerus 47.5647 5.20352 -82.3765
rradius 32.1435
rwrist -4.11759
rhand -27.5718 -20.8279
rfingers 7.12502
rthumb -0.972357 -50.8054
lclavicle 3.29983e-014 2.41026e-015
lhumerus 55.7967 -13.9963 72.5538
lradius 34.8218
lwrist 42.0246
lhand -27.5491 19.2353
lfingers 7.12502
lthumb -0.950383 49.2129
rfemur -68.6668 -17.9193 22.3076
rtibia 46.6177
rfoot -15.2952 -7.40444
rtoes -3.95551
lfemur -66.458 -5.67014 -10.0865
ltibia 41.2193
lfoot -12.9984 -0.0777437
ltoes 16.7684
98
root -12.2166 17.5933 -16.1007 -175.442 81.2623 -214.348
lowerback 54.2428 -5.32919 3.32888
upperback 10.45 -2.21587 -0.574963
thorax -9.41762 -0.133836 -1.28826
lowerneck -12.1311 -3.43649 -8.67159
upperneck 4.13112 -3.78967 7.19512
head 3.49742 -1.69094 3.35518
rclavicle -4.17448e-014 -1.94312e-014
rhumerus 47.0624 5.34041 -81.8118
rradius 32.6501
rwrist -4.83809
rhand -27.1265 -20.6233
rfingers 7.12502
rthumb -0.542251 -50.6023
lclavicle -4.17448e-014 -1.94312e-014
lhumerus 55.0033 -14.2947 72.4097
lradius 35.629
lwrist 42.4501
lhand -27.4487 19.6904
lfingers 7.12502
lthumb -0.853466 49.6684
rfemur -68.149 -17.4535 21.8123
rtibia 46.3348
rfoot -15.1696 -8.0517
rtoes -3.11886
lfemur -66.1773 -5.72673 -10.0444
ltibia 40.8088
lfoot -12.7038 -0.133786
ltoes 17.316
99
root -12.2093 17.6143 -16.0875 -175.024 81.1005 -213.797
lowerback 53.9408 -5.30934 3.355
upperback 10.4357 -2.20636 -0.55351
thorax -9.40537 -0.1353 -1.28402
lowerneck -12.0632 -3.43496 -8.584
upperneck 3.81256 -3.79522 7.22503
head 3.38946 -1.69066 3.35131
rclavicle -1.15295e-014 -2.85504e-014
rhumerus 46.2604 5.54925 -81.0219
rradius 33.3975
rwrist -5.65158
rhand -26.6245 -20.4893
rfingers 7.12502
rthumb -0.0574196 -50.469
lclavicle -1.15295e-014 -2.85504e-014
lhumerus 54.12 -14.6895 72.0812
lradius 36.4897
lwrist 42.9903
lhand -27.2544 20.1231
lfingers 7.12502
lthumb -0.665765 50.1018
rfemur -67.5924 -17.0345 21.3526
rtibia 46.043
rfoot -15.0816 -8.60934
rtoes -2.13772
lfemur -65.8348 -5.82153 -9.97315
ltibia 40.3892
lfoot -12.4204 -0.173919
ltoes 17.8555
100
root -12.2023 17.6336 -16.0738 -174.669 80.9499 -213.244
lowerback 53.6214 -5.2529 3.37312
upperback 10.4275 -2.15858 -0.522654
thorax -9.38222 -0.120188 -1.28321
lowerneck -12.0006 -3.44895 -8.46858
upperneck 3.58929 -3.82697 7.22395
head 3.31219 -1.70491 3.33124
rclavicle -1.74931e-014 6.43565e-015
rhumerus 45.194 5.7386 -80.1562
rradius 34.3263
rwrist -6.46711
rhand -26.2895 -20.498
rfingers 7.12502
rthumb 0.266148 -50.4776
lclavicle -1.74931e-014 6.43565e-015
lhumerus 53.1925 -15.2168 71.6893
lradius 37.3108
lwrist 43.5516
lhand -27.0036 20.4619
lfingers 7.12502
lthumb -0.423539 50.4412
rfemur -67.028 -16.7604 21.0424
rtibia 45.7509
rfoot -15.0162 -8.97876
rtoes -1.34668
lfemur -65.4321 -5.95808 -9.86207
ltibia 39.9893
lfoot -12.1687 -0.16953
ltoes 18.2708
101
root -12.1955 17.6517 -16.0601 -174.366 80.8096 -212.675
lowerback 53.2994 -5.18323 3.38549
upperback 10.4209 -2.09898 -0.495989
thorax -9.35574 -0.0992754 -1.28979
lowerneck -11.9746 -3.47325 -8.35407
upperneck 3.49639 -3.87514 7.22329
head 3.28158 -1.72729 3.30964
rclavicle -5.76476e-014 -7.16867e-014
rhumerus 43.9636 5.92463 -79.3732
rradius 35.3331
rwrist -7.1913
rhand -26.2339 -20.6884
rfingers 7.12502
rthumb 0.319827 -50.6679
lclavicle -5.76476e-014 -7.16867e-014
lhumerus 52.2259 -15.829 71.3233
lradius 38.019
lwrist 43.9853
lhand -26.7537 20.654
lfingers 7.12502
lthumb -0.18216 50.6336
rfemur -66.4543 -16.6623 20.909
rtibia 45.4568
rfoot -14.9519 -9.1493
rtoes -0.926818
lfemur -64.9694 -6.13088 -9.72337
ltibia 39.6198
lfoot -11.9518 -0.112504
ltoes 18.4619
102
root -12.1889 17.6697 -16.0469 -174.113 80.6731 -212.089
lowerback 52.9794 -5.1016 3.39133
upperback 10.4167 -2.02716 -0.465275
thorax -9.32499 -0.0725622 -1.29443
lowerneck -11.9941 -3.51388 -8.25457
upperneck 3.5353 -3.94606 7.23231
head 3.30039 -1.76042 3.29098
rclavicle 7.23576e-014 2.41896e-014
rhumerus 42.687 6.10914 -78.7179
rradius 36.3173
rwrist -7.77613
rhand -26.4438 -21.0508
rfingers 7.12502
rthumb 0.117086 -51.0305
lclavicle 7.23576e-014 2.41896e-014
lhumerus 51.2353 -16.5089 71.0804
lradius 38.5811
lwrist 44.1356
lhand -26.5802 20.7013
lfingers 7.12502
lthumb -0.014607 50.6811
rfemur -65.8439 -16.7023 20.8996
rtibia 45.1503
rfoot -14.8804 -9.18269
rtoes -0.822126
lfemur -64.4436 -6.32109 -9.58872
ltibia 39.2731
lfoot -11.7561 -0.0223501
ltoes 18.3922
103
root -12.1829 17.6887 -16.0353 -173.912 80.5355 -211.492
lowerback 52.664 -5.02441 3.39857
upperback 10.412 -1.95839 -0.433697
thorax -9.29431 -0.0466967 -1.2974
lowerneck -12.0502 -3.56769 -8.19147
upperneck 3.69392 -4.0337 7.26545
head 3.36385 -1.80092 3.28367
rclavicle 7.63333e-014 3.63527e-014
rhumerus 41.4412 6.3151 -78.219
rradius 37.2147
rwrist -8.18351
rhand -26.8235 -21.5169
rfingers 7.12502
rthumb -0.249579 -51.4965
lclavicle 7.63333e-014 3.63527e-014
lhumerus 50.2133 -17.2254 71.0011
lradius 39.0115
lwrist 43.8887
lhand -26.5589 20.6647
lfingers 7.12502
lthumb 0.00591539 50.6445
rfemur -65.1607 -16.802 20.9216
rtibia 44.8187
rfoot -14.8094 -9.169
rtoes -0.79643
lfemur -63.849 -6.49682 -9.4984
ltibia 38.9303
lfoot -11.559 0.0575179
ltoes 18.1068
104
root -12.1779 17.7093 -16.026 -173.746 80.3981 -210.873
lowerback 52.3503 -4.96218 3.41569
upperback 10.4033 -1.90189 -0.403587
thorax -9.26767 -0.0259971 -1.30105
lowerneck -12.1204 -3.63214 -8.18421
upperneck 3.9551 -4.13346 7.33208
head 3.46362 -1.84658 3.29432
rclavicle 6.75868e-015 2.06115e-014
rhumerus 40.2504 6.54874 -77.896
rradius 37.9954
rwrist -8.37429
rhand -27.2651 -21.9757
rfingers 7.12502
rthumb -0.676155 -51.9544
lclavicle 6.75868e-015 2.06115e-014
lhumerus 49.1438 -17.9586 71.0795
lradius 39.3598
lwrist 43.1993
lhand -26.7421 20.6374
lfingers 7.12502
lthumb -0.171 50.617
rfemur -64.3776 -16.883 20.8961
rtibia 44.452
rfoot -14.7524 -9.18162
rtoes -0.593895
lfemur -63.1801 -6.62038 -9.484
ltibia 38.5727
lfoot -11.341 0.0759423
ltoes 17.7021
105
root -12.1743 17.7309 -16.0192 -173.579 80.268 -210.201
lowerback 52.0281 -4.91945 3.45184
upperback 10.3889 -1.86071 -0.378751
thorax -9.24614 -0.0121467 -1.31251
lowerneck -12.1859 -3.70684 -8.24425
upperneck 4.30838 -4.24453 7.43735
head 3.59403 -1.89716 3.32668
rclavicle 3.49861e-014 4.55157e-015
rhumerus 39.0925 6.79642 -77.7605
rradius 38.661
rwrist -8.32155
rhand -27.7072 -22.3137
rfingers 7.12502
rthumb -1.10315 -52.2906
lclavicle 3.49861e-014 4.55157e-015
lhumerus 48.0112 -18.7033 71.2658
lradius 39.6916
lwrist 42.0983
lhand -27.1422 20.7027
lfingers 7.12502
lthumb -0.557382 50.6818
rfemur -63.4888 -16.9006 20.7931
rtibia 44.0466
rfoot -14.7186 -9.25041
rtoes -0.0980777
lfemur -62.4362 -6.6628 -9.55437
ltibia 38.1901
lfoot -11.0961 -0.00483816
ltoes 17.285
106
root -12.1725 17.7524 -16.0146 -173.356 80.1537 -209.428
lowerback 51.6812 -4.88853 3.51107
upperback 10.3701 -1.82596 -0.357495
thorax -9.22578 -0.00177838 -1.3359
lowerneck -12.2419 -3.79577 -8.36767
upperneck 4.75179 -4.37287 7.57684
head 3.7543 -1.95577 3.37845
rclavicle 4.49253e-014 8.44835e-016
rhumerus 37.9143 7.03101 -77.7905
rradius 39.2447
rwrist -8.03979
rhand -28.1554 -22.4628
rfingers 7.12502
rthumb -1.53598 -52.4371
lclavicle 4.49253e-014 8.44835e-016
lhumerus 46.8099 -19.4708 71.4973
lradius 40.0647
lwrist 40.6751
lhand -27.7333 20.8979
lfingers 7.12502
lthumb -1.1283 50.8747
rfemur -62.5112 -16.8542 20.6375
rtibia 43.605
rfoot -14.7074 -9.36292
rtoes 0.60208
lfemur -61.625 -6.61609 -9.68933
ltibia 37.7853
lfoot -10.8364 -0.192581
ltoes 16.9247
